<mxfile host="app.diagrams.net" modified="2023-09-16T10:58:32.045Z" agent="Mozilla/5.0 (Windows NT 10.0; Win64; x64) AppleWebKit/537.36 (KHTML, like Gecko) Chrome/116.0.0.0 Safari/537.36" etag="xwJWkUfh6iz-0xpqc5xp" version="21.7.5" type="device">
  <diagram id="_5H-L2p9wcAScAushxqT" name="Trang-1">
    <mxGraphModel dx="1250" dy="1132" grid="1" gridSize="10" guides="1" tooltips="1" connect="1" arrows="1" fold="1" page="1" pageScale="1" pageWidth="850" pageHeight="1100" math="0" shadow="0">
      <root>
        <mxCell id="0" />
        <mxCell id="1" parent="0" />
        <mxCell id="MCsUvH6jt3mRJvjkBpip-1" style="edgeStyle=orthogonalEdgeStyle;rounded=0;orthogonalLoop=1;jettySize=auto;html=1;entryX=0.5;entryY=0;entryDx=0;entryDy=0;" parent="1" source="MCsUvH6jt3mRJvjkBpip-5" target="MCsUvH6jt3mRJvjkBpip-7" edge="1">
          <mxGeometry relative="1" as="geometry" />
        </mxCell>
        <mxCell id="MCsUvH6jt3mRJvjkBpip-2" style="edgeStyle=orthogonalEdgeStyle;rounded=0;orthogonalLoop=1;jettySize=auto;html=1;entryX=0;entryY=0.5;entryDx=0;entryDy=0;" parent="1" source="MCsUvH6jt3mRJvjkBpip-5" target="MCsUvH6jt3mRJvjkBpip-9" edge="1">
          <mxGeometry relative="1" as="geometry">
            <mxPoint x="990" y="902.5" as="targetPoint" />
            <Array as="points">
              <mxPoint x="960" y="672.5" />
              <mxPoint x="960" y="872.5" />
            </Array>
          </mxGeometry>
        </mxCell>
        <mxCell id="MCsUvH6jt3mRJvjkBpip-3" style="edgeStyle=orthogonalEdgeStyle;rounded=0;orthogonalLoop=1;jettySize=auto;html=1;" parent="1" source="MCsUvH6jt3mRJvjkBpip-5" edge="1">
          <mxGeometry relative="1" as="geometry">
            <mxPoint x="1220" y="672.5" as="targetPoint" />
          </mxGeometry>
        </mxCell>
        <mxCell id="MCsUvH6jt3mRJvjkBpip-4" style="edgeStyle=orthogonalEdgeStyle;rounded=0;orthogonalLoop=1;jettySize=auto;html=1;entryX=0.5;entryY=1;entryDx=0;entryDy=0;" parent="1" source="MCsUvH6jt3mRJvjkBpip-5" target="MCsUvH6jt3mRJvjkBpip-12" edge="1">
          <mxGeometry relative="1" as="geometry" />
        </mxCell>
        <mxCell id="MCsUvH6jt3mRJvjkBpip-5" value="Home Page" style="rounded=0;whiteSpace=wrap;html=1;fillColor=#FFFFB3;strokeColor=#36393d;" parent="1" vertex="1">
          <mxGeometry x="1000" y="642.5" width="120" height="60" as="geometry" />
        </mxCell>
        <mxCell id="MCsUvH6jt3mRJvjkBpip-6" value="" style="edgeStyle=orthogonalEdgeStyle;rounded=0;orthogonalLoop=1;jettySize=auto;html=1;" parent="1" source="MCsUvH6jt3mRJvjkBpip-7" target="MCsUvH6jt3mRJvjkBpip-9" edge="1">
          <mxGeometry relative="1" as="geometry" />
        </mxCell>
        <mxCell id="MCsUvH6jt3mRJvjkBpip-7" value="Brand" style="rounded=0;whiteSpace=wrap;html=1;fillColor=#dae8fc;strokeColor=#6c8ebf;" parent="1" vertex="1">
          <mxGeometry x="1000" y="742.5" width="120" height="60" as="geometry" />
        </mxCell>
        <mxCell id="MCsUvH6jt3mRJvjkBpip-8" style="edgeStyle=orthogonalEdgeStyle;rounded=0;orthogonalLoop=1;jettySize=auto;html=1;entryX=0;entryY=0.5;entryDx=0;entryDy=0;" parent="1" source="MCsUvH6jt3mRJvjkBpip-9" target="MCsUvH6jt3mRJvjkBpip-14" edge="1">
          <mxGeometry relative="1" as="geometry">
            <mxPoint x="1210" y="902.5" as="targetPoint" />
          </mxGeometry>
        </mxCell>
        <mxCell id="MCsUvH6jt3mRJvjkBpip-9" value="Product" style="rounded=0;whiteSpace=wrap;html=1;fillColor=#dae8fc;strokeColor=#6c8ebf;" parent="1" vertex="1">
          <mxGeometry x="1000" y="842.5" width="120" height="60" as="geometry" />
        </mxCell>
        <mxCell id="MCsUvH6jt3mRJvjkBpip-10" style="edgeStyle=orthogonalEdgeStyle;rounded=0;orthogonalLoop=1;jettySize=auto;html=1;entryX=0;entryY=0.5;entryDx=0;entryDy=0;" parent="1" source="MCsUvH6jt3mRJvjkBpip-11" target="MCsUvH6jt3mRJvjkBpip-13" edge="1">
          <mxGeometry relative="1" as="geometry">
            <mxPoint x="1420" y="672.5" as="targetPoint" />
            <Array as="points">
              <mxPoint x="1350" y="672.5" />
              <mxPoint x="1350" y="672.5" />
            </Array>
          </mxGeometry>
        </mxCell>
        <mxCell id="MCsUvH6jt3mRJvjkBpip-11" value="" style="rounded=0;whiteSpace=wrap;html=1;" parent="1" vertex="1">
          <mxGeometry x="1220" y="642.5" width="120" height="150" as="geometry" />
        </mxCell>
        <mxCell id="MCsUvH6jt3mRJvjkBpip-12" value="Introduce" style="rounded=0;whiteSpace=wrap;html=1;fillColor=#dae8fc;strokeColor=#6c8ebf;" parent="1" vertex="1">
          <mxGeometry x="1000" y="507.5" width="120" height="60" as="geometry" />
        </mxCell>
        <mxCell id="MCsUvH6jt3mRJvjkBpip-13" value="Post Login" style="rounded=0;whiteSpace=wrap;html=1;" parent="1" vertex="1">
          <mxGeometry x="1480" y="642.5" width="120" height="60" as="geometry" />
        </mxCell>
        <mxCell id="MCsUvH6jt3mRJvjkBpip-14" value="Product Detail" style="rounded=0;whiteSpace=wrap;html=1;fillColor=#dae8fc;strokeColor=#6c8ebf;" parent="1" vertex="1">
          <mxGeometry x="1220" y="842.5" width="120" height="60" as="geometry" />
        </mxCell>
        <mxCell id="MCsUvH6jt3mRJvjkBpip-15" value="" style="endArrow=none;html=1;rounded=0;" parent="1" edge="1">
          <mxGeometry width="50" height="50" relative="1" as="geometry">
            <mxPoint x="960" y="942.5" as="sourcePoint" />
            <mxPoint x="960" y="872.5" as="targetPoint" />
          </mxGeometry>
        </mxCell>
        <mxCell id="MCsUvH6jt3mRJvjkBpip-16" value="" style="endArrow=classic;html=1;rounded=0;entryX=0.5;entryY=1;entryDx=0;entryDy=0;" parent="1" target="MCsUvH6jt3mRJvjkBpip-14" edge="1">
          <mxGeometry width="50" height="50" relative="1" as="geometry">
            <mxPoint x="960" y="942.5" as="sourcePoint" />
            <mxPoint x="1400" y="972.5" as="targetPoint" />
            <Array as="points">
              <mxPoint x="1280" y="942.5" />
            </Array>
          </mxGeometry>
        </mxCell>
        <mxCell id="MCsUvH6jt3mRJvjkBpip-17" value="Forgot password" style="rounded=0;whiteSpace=wrap;html=1;" parent="1" vertex="1">
          <mxGeometry x="1220" y="512.5" width="120" height="60" as="geometry" />
        </mxCell>
        <mxCell id="MCsUvH6jt3mRJvjkBpip-18" value="" style="rounded=0;whiteSpace=wrap;html=1;" parent="1" vertex="1">
          <mxGeometry x="1480" y="322.5" width="120" height="250" as="geometry" />
        </mxCell>
        <mxCell id="MCsUvH6jt3mRJvjkBpip-19" value="Owner profile" style="text;html=1;strokeColor=none;fillColor=none;align=center;verticalAlign=middle;whiteSpace=wrap;rounded=0;" parent="1" vertex="1">
          <mxGeometry x="1495" y="332.5" width="90" height="30" as="geometry" />
        </mxCell>
        <mxCell id="MCsUvH6jt3mRJvjkBpip-22" value="Account" style="rounded=0;whiteSpace=wrap;html=1;" parent="1" vertex="1">
          <mxGeometry x="1495" y="420" width="95" height="40" as="geometry" />
        </mxCell>
        <mxCell id="MCsUvH6jt3mRJvjkBpip-23" value="" style="endArrow=classic;html=1;rounded=0;exitX=0.5;exitY=0;exitDx=0;exitDy=0;entryX=0.5;entryY=1;entryDx=0;entryDy=0;" parent="1" source="MCsUvH6jt3mRJvjkBpip-13" target="MCsUvH6jt3mRJvjkBpip-18" edge="1">
          <mxGeometry width="50" height="50" relative="1" as="geometry">
            <mxPoint x="1460" y="532.5" as="sourcePoint" />
            <mxPoint x="1510" y="482.5" as="targetPoint" />
          </mxGeometry>
        </mxCell>
        <mxCell id="MCsUvH6jt3mRJvjkBpip-24" value="" style="endArrow=classic;html=1;rounded=0;entryX=1;entryY=0.5;entryDx=0;entryDy=0;exitX=0;exitY=0.5;exitDx=0;exitDy=0;" parent="1" source="MCsUvH6jt3mRJvjkBpip-22" target="MCsUvH6jt3mRJvjkBpip-25" edge="1">
          <mxGeometry width="50" height="50" relative="1" as="geometry">
            <mxPoint x="1400" y="422.5" as="sourcePoint" />
            <mxPoint x="1380" y="542.5" as="targetPoint" />
          </mxGeometry>
        </mxCell>
        <mxCell id="jU25uh0QKvTO8C4eT4y0-46" value="Click&lt;br&gt;&amp;nbsp;change&lt;br&gt;&amp;nbsp;password" style="edgeLabel;html=1;align=center;verticalAlign=middle;resizable=0;points=[];" vertex="1" connectable="0" parent="MCsUvH6jt3mRJvjkBpip-24">
          <mxGeometry x="0.1244" relative="1" as="geometry">
            <mxPoint x="-18" as="offset" />
          </mxGeometry>
        </mxCell>
        <mxCell id="MCsUvH6jt3mRJvjkBpip-25" value="Change password" style="rounded=0;whiteSpace=wrap;html=1;" parent="1" vertex="1">
          <mxGeometry x="1220" y="410" width="120" height="60" as="geometry" />
        </mxCell>
        <mxCell id="MCsUvH6jt3mRJvjkBpip-26" value="" style="endArrow=classic;html=1;rounded=0;exitX=0.5;exitY=0;exitDx=0;exitDy=0;entryX=0.5;entryY=1;entryDx=0;entryDy=0;" parent="1" source="MCsUvH6jt3mRJvjkBpip-11" target="MCsUvH6jt3mRJvjkBpip-17" edge="1">
          <mxGeometry width="50" height="50" relative="1" as="geometry">
            <mxPoint x="1240" y="592.5" as="sourcePoint" />
            <mxPoint x="1290" y="542.5" as="targetPoint" />
          </mxGeometry>
        </mxCell>
        <mxCell id="MCsUvH6jt3mRJvjkBpip-27" value="" style="endArrow=classic;html=1;rounded=0;exitX=0.5;exitY=0;exitDx=0;exitDy=0;entryX=0.5;entryY=1;entryDx=0;entryDy=0;" parent="1" source="MCsUvH6jt3mRJvjkBpip-17" target="MCsUvH6jt3mRJvjkBpip-25" edge="1">
          <mxGeometry width="50" height="50" relative="1" as="geometry">
            <mxPoint x="1350" y="532.5" as="sourcePoint" />
            <mxPoint x="1400" y="482.5" as="targetPoint" />
          </mxGeometry>
        </mxCell>
        <mxCell id="MCsUvH6jt3mRJvjkBpip-38" value="Logout" style="rounded=0;whiteSpace=wrap;html=1;" parent="1" vertex="1">
          <mxGeometry x="1495" y="522.5" width="95" height="30" as="geometry" />
        </mxCell>
        <mxCell id="MCsUvH6jt3mRJvjkBpip-39" value="Login" style="rounded=0;whiteSpace=wrap;html=1;" parent="1" vertex="1">
          <mxGeometry x="1230" y="692.5" width="100" height="40" as="geometry" />
        </mxCell>
        <mxCell id="MCsUvH6jt3mRJvjkBpip-40" value="Register" style="rounded=0;whiteSpace=wrap;html=1;fillColor=#dae8fc;strokeColor=#6c8ebf;" parent="1" vertex="1">
          <mxGeometry x="1230" y="742.5" width="100" height="40" as="geometry" />
        </mxCell>
        <mxCell id="MCsUvH6jt3mRJvjkBpip-41" value="Authenticator" style="text;html=1;strokeColor=none;fillColor=none;align=center;verticalAlign=middle;whiteSpace=wrap;rounded=0;" parent="1" vertex="1">
          <mxGeometry x="1250" y="657.5" width="60" height="30" as="geometry" />
        </mxCell>
        <mxCell id="MCsUvH6jt3mRJvjkBpip-46" value="Management" style="rounded=0;whiteSpace=wrap;html=1;" parent="1" vertex="1">
          <mxGeometry x="1495" y="472.5" width="92.5" height="40" as="geometry" />
        </mxCell>
        <mxCell id="MCsUvH6jt3mRJvjkBpip-51" value="" style="endArrow=classic;html=1;rounded=0;" parent="1" target="MCsUvH6jt3mRJvjkBpip-76" edge="1">
          <mxGeometry width="50" height="50" relative="1" as="geometry">
            <mxPoint x="1590" y="493" as="sourcePoint" />
            <mxPoint x="1680" y="382.5" as="targetPoint" />
            <Array as="points">
              <mxPoint x="1660" y="493" />
              <mxPoint x="1660" y="382.5" />
              <mxPoint x="1660" y="154" />
            </Array>
          </mxGeometry>
        </mxCell>
        <mxCell id="jU25uh0QKvTO8C4eT4y0-4" value="Select &lt;br&gt;admin &lt;br&gt;management" style="edgeLabel;html=1;align=center;verticalAlign=middle;resizable=0;points=[];" vertex="1" connectable="0" parent="MCsUvH6jt3mRJvjkBpip-51">
          <mxGeometry x="-0.0347" y="-2" relative="1" as="geometry">
            <mxPoint x="-12" y="-120" as="offset" />
          </mxGeometry>
        </mxCell>
        <mxCell id="MCsUvH6jt3mRJvjkBpip-52" value="Click &quot;giới thiệu&quot; navbar" style="text;html=1;strokeColor=none;fillColor=none;align=center;verticalAlign=middle;whiteSpace=wrap;rounded=0;" parent="1" vertex="1">
          <mxGeometry x="940" y="597.5" width="120" height="30" as="geometry" />
        </mxCell>
        <mxCell id="MCsUvH6jt3mRJvjkBpip-53" value="Click &quot;thương hiệu&quot; navbar" style="text;html=1;strokeColor=none;fillColor=none;align=center;verticalAlign=middle;whiteSpace=wrap;rounded=0;" parent="1" vertex="1">
          <mxGeometry x="1060" y="712.5" width="100" height="30" as="geometry" />
        </mxCell>
        <mxCell id="MCsUvH6jt3mRJvjkBpip-54" value="Select brand" style="text;html=1;strokeColor=none;fillColor=none;align=center;verticalAlign=middle;whiteSpace=wrap;rounded=0;" parent="1" vertex="1">
          <mxGeometry x="1060" y="802.5" width="70" height="30" as="geometry" />
        </mxCell>
        <mxCell id="MCsUvH6jt3mRJvjkBpip-55" value="Click product element" style="text;html=1;strokeColor=none;fillColor=none;align=center;verticalAlign=middle;whiteSpace=wrap;rounded=0;rotation=-90;" parent="1" vertex="1">
          <mxGeometry x="880" y="857.5" width="120" height="30" as="geometry" />
        </mxCell>
        <mxCell id="MCsUvH6jt3mRJvjkBpip-57" value="Click product&#39;s image" style="text;html=1;strokeColor=none;fillColor=none;align=center;verticalAlign=middle;whiteSpace=wrap;rounded=0;" parent="1" vertex="1">
          <mxGeometry x="1070" y="942.5" width="120" height="30" as="geometry" />
        </mxCell>
        <mxCell id="MCsUvH6jt3mRJvjkBpip-59" value="Select a product" style="text;html=1;strokeColor=none;fillColor=none;align=center;verticalAlign=middle;whiteSpace=wrap;rounded=0;" parent="1" vertex="1">
          <mxGeometry x="1120" y="847.5" width="100" height="30" as="geometry" />
        </mxCell>
        <mxCell id="MCsUvH6jt3mRJvjkBpip-60" value="Click &quot;user&quot; icon" style="text;html=1;strokeColor=none;fillColor=none;align=center;verticalAlign=middle;whiteSpace=wrap;rounded=0;" parent="1" vertex="1">
          <mxGeometry x="1120" y="642.5" width="90" height="30" as="geometry" />
        </mxCell>
        <mxCell id="MCsUvH6jt3mRJvjkBpip-65" value="Click forgot password" style="text;html=1;strokeColor=none;fillColor=none;align=center;verticalAlign=middle;whiteSpace=wrap;rounded=0;" parent="1" vertex="1">
          <mxGeometry x="1160" y="597.5" width="120" height="30" as="geometry" />
        </mxCell>
        <mxCell id="MCsUvH6jt3mRJvjkBpip-67" value="Verified" style="text;html=1;strokeColor=none;fillColor=none;align=center;verticalAlign=middle;whiteSpace=wrap;rounded=0;" parent="1" vertex="1">
          <mxGeometry x="1220" y="482.5" width="60" height="30" as="geometry" />
        </mxCell>
        <mxCell id="MCsUvH6jt3mRJvjkBpip-71" value="Login success" style="text;html=1;strokeColor=none;fillColor=none;align=center;verticalAlign=middle;whiteSpace=wrap;rounded=0;" parent="1" vertex="1">
          <mxGeometry x="1370" y="642.5" width="80" height="30" as="geometry" />
        </mxCell>
        <mxCell id="MCsUvH6jt3mRJvjkBpip-72" value="Click &quot;user&quot; icon" style="text;html=1;strokeColor=none;fillColor=none;align=center;verticalAlign=middle;whiteSpace=wrap;rounded=0;" parent="1" vertex="1">
          <mxGeometry x="1450" y="597.5" width="90" height="30" as="geometry" />
        </mxCell>
        <mxCell id="MCsUvH6jt3mRJvjkBpip-76" value="Admin list" style="rounded=0;whiteSpace=wrap;html=1;" parent="1" vertex="1">
          <mxGeometry x="1710" y="125" width="120" height="57.5" as="geometry" />
        </mxCell>
        <mxCell id="MCsUvH6jt3mRJvjkBpip-77" value="Add admin" style="rounded=0;whiteSpace=wrap;html=1;" parent="1" vertex="1">
          <mxGeometry x="1910" y="125" width="120" height="60" as="geometry" />
        </mxCell>
        <mxCell id="MCsUvH6jt3mRJvjkBpip-78" value="Admin info update" style="rounded=0;whiteSpace=wrap;html=1;" parent="1" vertex="1">
          <mxGeometry x="1910" y="50" width="120" height="60" as="geometry" />
        </mxCell>
        <mxCell id="MCsUvH6jt3mRJvjkBpip-84" value="" style="endArrow=classic;html=1;entryX=0;entryY=0.5;entryDx=0;entryDy=0;" parent="1" edge="1" target="MCsUvH6jt3mRJvjkBpip-77">
          <mxGeometry width="50" height="50" relative="1" as="geometry">
            <mxPoint x="1830" y="155" as="sourcePoint" />
            <mxPoint x="1930" y="382.5" as="targetPoint" />
          </mxGeometry>
        </mxCell>
        <mxCell id="jU25uh0QKvTO8C4eT4y0-6" value="Text" style="edgeLabel;html=1;align=center;verticalAlign=middle;resizable=0;points=[];" vertex="1" connectable="0" parent="MCsUvH6jt3mRJvjkBpip-84">
          <mxGeometry x="0.0054" y="-4" relative="1" as="geometry">
            <mxPoint as="offset" />
          </mxGeometry>
        </mxCell>
        <mxCell id="jU25uh0QKvTO8C4eT4y0-7" value="click add &lt;br&gt;button" style="edgeLabel;html=1;align=center;verticalAlign=middle;resizable=0;points=[];" vertex="1" connectable="0" parent="MCsUvH6jt3mRJvjkBpip-84">
          <mxGeometry x="-0.021" y="-5" relative="1" as="geometry">
            <mxPoint as="offset" />
          </mxGeometry>
        </mxCell>
        <mxCell id="MCsUvH6jt3mRJvjkBpip-85" value="" style="endArrow=classic;html=1;rounded=0;exitX=0.5;exitY=0;exitDx=0;exitDy=0;entryX=0;entryY=0.5;entryDx=0;entryDy=0;" parent="1" source="MCsUvH6jt3mRJvjkBpip-76" target="MCsUvH6jt3mRJvjkBpip-78" edge="1">
          <mxGeometry width="50" height="50" relative="1" as="geometry">
            <mxPoint x="1960" y="452.5" as="sourcePoint" />
            <mxPoint x="2010" y="402.5" as="targetPoint" />
            <Array as="points">
              <mxPoint x="1770" y="80" />
            </Array>
          </mxGeometry>
        </mxCell>
        <mxCell id="jU25uh0QKvTO8C4eT4y0-8" value="Select admin" style="edgeLabel;html=1;align=center;verticalAlign=middle;resizable=0;points=[];" vertex="1" connectable="0" parent="MCsUvH6jt3mRJvjkBpip-85">
          <mxGeometry x="0.4369" y="2" relative="1" as="geometry">
            <mxPoint as="offset" />
          </mxGeometry>
        </mxCell>
        <mxCell id="MCsUvH6jt3mRJvjkBpip-95" value="Employee list" style="rounded=0;whiteSpace=wrap;html=1;" parent="1" vertex="1">
          <mxGeometry x="1750" y="240" width="120" height="57.5" as="geometry" />
        </mxCell>
        <mxCell id="MCsUvH6jt3mRJvjkBpip-96" value="Add employee" style="rounded=0;whiteSpace=wrap;html=1;" parent="1" vertex="1">
          <mxGeometry x="1970" y="202.5" width="120" height="60" as="geometry" />
        </mxCell>
        <mxCell id="MCsUvH6jt3mRJvjkBpip-97" value="Employee info update" style="rounded=0;whiteSpace=wrap;html=1;" parent="1" vertex="1">
          <mxGeometry x="1970" y="297.5" width="120" height="60" as="geometry" />
        </mxCell>
        <mxCell id="MCsUvH6jt3mRJvjkBpip-99" value="" style="endArrow=classic;html=1;rounded=0;exitX=0.5;exitY=1;exitDx=0;exitDy=0;" parent="1" source="MCsUvH6jt3mRJvjkBpip-95" edge="1">
          <mxGeometry width="50" height="50" relative="1" as="geometry">
            <mxPoint x="1960" y="643.75" as="sourcePoint" />
            <mxPoint x="1970" y="330" as="targetPoint" />
            <Array as="points">
              <mxPoint x="1810" y="330" />
            </Array>
          </mxGeometry>
        </mxCell>
        <mxCell id="jU25uh0QKvTO8C4eT4y0-15" value="Select an&lt;br&gt;employee" style="edgeLabel;html=1;align=center;verticalAlign=middle;resizable=0;points=[];" vertex="1" connectable="0" parent="MCsUvH6jt3mRJvjkBpip-99">
          <mxGeometry x="0.2758" y="1" relative="1" as="geometry">
            <mxPoint as="offset" />
          </mxGeometry>
        </mxCell>
        <mxCell id="MCsUvH6jt3mRJvjkBpip-102" value="" style="endArrow=classic;html=1;rounded=0;exitX=1;exitY=0.5;exitDx=0;exitDy=0;" parent="1" source="MCsUvH6jt3mRJvjkBpip-46" edge="1">
          <mxGeometry width="50" height="50" relative="1" as="geometry">
            <mxPoint x="1740" y="562.5" as="sourcePoint" />
            <mxPoint x="1750" y="270" as="targetPoint" />
            <Array as="points">
              <mxPoint x="1710" y="493" />
              <mxPoint x="1710" y="270" />
            </Array>
          </mxGeometry>
        </mxCell>
        <mxCell id="jU25uh0QKvTO8C4eT4y0-9" value="Select &lt;br&gt;empoyee &lt;br&gt;management" style="edgeLabel;html=1;align=center;verticalAlign=middle;resizable=0;points=[];" vertex="1" connectable="0" parent="MCsUvH6jt3mRJvjkBpip-102">
          <mxGeometry x="0.3126" y="1" relative="1" as="geometry">
            <mxPoint x="1" y="18" as="offset" />
          </mxGeometry>
        </mxCell>
        <mxCell id="MCsUvH6jt3mRJvjkBpip-112" value="Product list" style="rounded=0;whiteSpace=wrap;html=1;" parent="1" vertex="1">
          <mxGeometry x="1900" y="482.5" width="120" height="57.5" as="geometry" />
        </mxCell>
        <mxCell id="MCsUvH6jt3mRJvjkBpip-113" value="Add product" style="rounded=0;whiteSpace=wrap;html=1;" parent="1" vertex="1">
          <mxGeometry x="2170" y="480" width="120" height="60" as="geometry" />
        </mxCell>
        <mxCell id="MCsUvH6jt3mRJvjkBpip-114" value="Update product" style="rounded=0;whiteSpace=wrap;html=1;" parent="1" vertex="1">
          <mxGeometry x="2170" y="550" width="120" height="60" as="geometry" />
        </mxCell>
        <mxCell id="MCsUvH6jt3mRJvjkBpip-115" value="" style="endArrow=classic;html=1;exitX=1;exitY=0.5;exitDx=0;exitDy=0;" parent="1" source="MCsUvH6jt3mRJvjkBpip-112" edge="1">
          <mxGeometry width="50" height="50" relative="1" as="geometry">
            <mxPoint x="1960" y="815" as="sourcePoint" />
            <mxPoint x="2170" y="510" as="targetPoint" />
          </mxGeometry>
        </mxCell>
        <mxCell id="jU25uh0QKvTO8C4eT4y0-29" value="click add&lt;br&gt;&amp;nbsp;button" style="edgeLabel;html=1;align=center;verticalAlign=middle;resizable=0;points=[];" vertex="1" connectable="0" parent="MCsUvH6jt3mRJvjkBpip-115">
          <mxGeometry x="-0.1253" y="-4" relative="1" as="geometry">
            <mxPoint as="offset" />
          </mxGeometry>
        </mxCell>
        <mxCell id="MCsUvH6jt3mRJvjkBpip-116" value="" style="endArrow=classic;html=1;rounded=0;exitX=0.5;exitY=1;exitDx=0;exitDy=0;entryX=0;entryY=0.5;entryDx=0;entryDy=0;" parent="1" source="MCsUvH6jt3mRJvjkBpip-112" target="MCsUvH6jt3mRJvjkBpip-114" edge="1">
          <mxGeometry width="50" height="50" relative="1" as="geometry">
            <mxPoint x="1960" y="815" as="sourcePoint" />
            <mxPoint x="2010" y="765" as="targetPoint" />
            <Array as="points">
              <mxPoint x="1960" y="580" />
            </Array>
          </mxGeometry>
        </mxCell>
        <mxCell id="jU25uh0QKvTO8C4eT4y0-30" value="Select a&lt;br&gt;&amp;nbsp;product" style="edgeLabel;html=1;align=center;verticalAlign=middle;resizable=0;points=[];" vertex="1" connectable="0" parent="MCsUvH6jt3mRJvjkBpip-116">
          <mxGeometry x="0.1969" relative="1" as="geometry">
            <mxPoint as="offset" />
          </mxGeometry>
        </mxCell>
        <mxCell id="MCsUvH6jt3mRJvjkBpip-119" value="" style="endArrow=classic;html=1;rounded=0;entryX=-0.018;entryY=0.452;entryDx=0;entryDy=0;entryPerimeter=0;" parent="1" target="MCsUvH6jt3mRJvjkBpip-112" edge="1">
          <mxGeometry width="50" height="50" relative="1" as="geometry">
            <mxPoint x="1590" y="493" as="sourcePoint" />
            <mxPoint x="1750" y="592.5" as="targetPoint" />
            <Array as="points">
              <mxPoint x="1730" y="493" />
              <mxPoint x="1730" y="508" />
            </Array>
          </mxGeometry>
        </mxCell>
        <mxCell id="jU25uh0QKvTO8C4eT4y0-28" value="Select&lt;br&gt;&amp;nbsp;product &lt;br&gt;management" style="edgeLabel;html=1;align=center;verticalAlign=middle;resizable=0;points=[];" vertex="1" connectable="0" parent="MCsUvH6jt3mRJvjkBpip-119">
          <mxGeometry x="0.4018" y="-2" relative="1" as="geometry">
            <mxPoint x="33" y="-2" as="offset" />
          </mxGeometry>
        </mxCell>
        <mxCell id="MCsUvH6jt3mRJvjkBpip-126" value="Statistic" style="rounded=0;whiteSpace=wrap;html=1;" parent="1" vertex="1">
          <mxGeometry x="1730" y="980" width="120" height="60" as="geometry" />
        </mxCell>
        <mxCell id="MCsUvH6jt3mRJvjkBpip-127" value="" style="endArrow=classic;html=1;rounded=0;entryX=0;entryY=0.5;entryDx=0;entryDy=0;" parent="1" target="MCsUvH6jt3mRJvjkBpip-126" edge="1">
          <mxGeometry width="50" height="50" relative="1" as="geometry">
            <mxPoint x="1590" y="493" as="sourcePoint" />
            <mxPoint x="1850" y="432.5" as="targetPoint" />
            <Array as="points">
              <mxPoint x="1630" y="493" />
              <mxPoint x="1630" y="1010" />
            </Array>
          </mxGeometry>
        </mxCell>
        <mxCell id="jU25uh0QKvTO8C4eT4y0-43" value="Select&lt;br&gt;&amp;nbsp;statistic" style="edgeLabel;html=1;align=center;verticalAlign=middle;resizable=0;points=[];" vertex="1" connectable="0" parent="MCsUvH6jt3mRJvjkBpip-127">
          <mxGeometry x="0.2278" y="1" relative="1" as="geometry">
            <mxPoint as="offset" />
          </mxGeometry>
        </mxCell>
        <mxCell id="MCsUvH6jt3mRJvjkBpip-131" value="" style="endArrow=classic;html=1;rounded=0;exitX=0.5;exitY=1;exitDx=0;exitDy=0;" parent="1" source="MCsUvH6jt3mRJvjkBpip-13" target="MCsUvH6jt3mRJvjkBpip-132" edge="1">
          <mxGeometry width="50" height="50" relative="1" as="geometry">
            <mxPoint x="1310" y="832.5" as="sourcePoint" />
            <mxPoint x="1540" y="822.5" as="targetPoint" />
          </mxGeometry>
        </mxCell>
        <mxCell id="MCsUvH6jt3mRJvjkBpip-132" value="Update web content" style="rounded=0;whiteSpace=wrap;html=1;" parent="1" vertex="1">
          <mxGeometry x="1480" y="780" width="120" height="60" as="geometry" />
        </mxCell>
        <mxCell id="MCsUvH6jt3mRJvjkBpip-133" value="Click web content icon" style="text;html=1;strokeColor=none;fillColor=none;align=center;verticalAlign=middle;whiteSpace=wrap;rounded=0;" parent="1" vertex="1">
          <mxGeometry x="1470" y="732.5" width="60" height="30" as="geometry" />
        </mxCell>
        <mxCell id="MCsUvH6jt3mRJvjkBpip-135" value="" style="rounded=0;whiteSpace=wrap;html=1;fillColor=#f8cecc;strokeColor=#b85450;" parent="1" vertex="1">
          <mxGeometry x="1830" y="792.5" width="140" height="157.5" as="geometry" />
        </mxCell>
        <mxCell id="MCsUvH6jt3mRJvjkBpip-138" value="Add/Delete product log" style="rounded=0;whiteSpace=wrap;html=1;" parent="1" vertex="1">
          <mxGeometry x="1850" y="887.5" width="100" height="50" as="geometry" />
        </mxCell>
        <mxCell id="MCsUvH6jt3mRJvjkBpip-139" value="Product Update Request log" style="rounded=0;whiteSpace=wrap;html=1;" parent="1" vertex="1">
          <mxGeometry x="1850" y="832.5" width="100" height="50" as="geometry" />
        </mxCell>
        <mxCell id="MCsUvH6jt3mRJvjkBpip-140" value="Product Change Log" style="text;html=1;strokeColor=none;fillColor=none;align=center;verticalAlign=middle;whiteSpace=wrap;rounded=0;" parent="1" vertex="1">
          <mxGeometry x="1840" y="802.5" width="120" height="30" as="geometry" />
        </mxCell>
        <mxCell id="MCsUvH6jt3mRJvjkBpip-146" value="" style="rounded=0;whiteSpace=wrap;html=1;dashed=1;" parent="1" vertex="1">
          <mxGeometry x="2390" y="610" width="140" height="260" as="geometry" />
        </mxCell>
        <mxCell id="MCsUvH6jt3mRJvjkBpip-147" value="Guest" style="rounded=0;whiteSpace=wrap;html=1;dashed=1;strokeWidth=0;fillColor=#dae8fc;strokeColor=#6c8ebf;" parent="1" vertex="1">
          <mxGeometry x="2420" y="690" width="77" height="45" as="geometry" />
        </mxCell>
        <mxCell id="MCsUvH6jt3mRJvjkBpip-148" value="Owner" style="rounded=0;whiteSpace=wrap;html=1;dashed=1;strokeWidth=0;" parent="1" vertex="1">
          <mxGeometry x="2420" y="750" width="77" height="35" as="geometry" />
        </mxCell>
        <mxCell id="MCsUvH6jt3mRJvjkBpip-149" value="Flat page" style="rounded=0;whiteSpace=wrap;html=1;strokeWidth=1;perimeterSpacing=1;" parent="1" vertex="1">
          <mxGeometry x="2420" y="630" width="80" height="40" as="geometry" />
        </mxCell>
        <mxCell id="MCsUvH6jt3mRJvjkBpip-150" value="Start page" style="rounded=0;whiteSpace=wrap;html=1;dashed=1;strokeWidth=0;fillColor=#FFFFB3;strokeColor=#FFFFB3;" parent="1" vertex="1">
          <mxGeometry x="2420" y="797.5" width="77" height="45" as="geometry" />
        </mxCell>
        <mxCell id="jU25uh0QKvTO8C4eT4y0-1" value="" style="endArrow=classic;html=1;rounded=0;exitX=1;exitY=0.5;exitDx=0;exitDy=0;entryX=0;entryY=0.5;entryDx=0;entryDy=0;fillColor=#f8cecc;strokeColor=#b85450;" edge="1" parent="1" source="MCsUvH6jt3mRJvjkBpip-139" target="jU25uh0QKvTO8C4eT4y0-3">
          <mxGeometry width="50" height="50" relative="1" as="geometry">
            <mxPoint x="2135" y="815" as="sourcePoint" />
            <mxPoint x="2190" y="840.5" as="targetPoint" />
          </mxGeometry>
        </mxCell>
        <mxCell id="jU25uh0QKvTO8C4eT4y0-2" value="Click Detail" style="edgeLabel;html=1;align=center;verticalAlign=middle;resizable=0;points=[];" vertex="1" connectable="0" parent="jU25uh0QKvTO8C4eT4y0-1">
          <mxGeometry x="0.0371" y="-5" relative="1" as="geometry">
            <mxPoint y="-5" as="offset" />
          </mxGeometry>
        </mxCell>
        <mxCell id="jU25uh0QKvTO8C4eT4y0-3" value="Product Update Request Detail" style="rounded=0;whiteSpace=wrap;html=1;fillColor=#f8cecc;strokeColor=#b85450;" vertex="1" parent="1">
          <mxGeometry x="2100" y="832.5" width="120" height="50" as="geometry" />
        </mxCell>
        <mxCell id="jU25uh0QKvTO8C4eT4y0-11" value="" style="endArrow=classic;html=1;rounded=0;exitX=1;exitY=0.5;exitDx=0;exitDy=0;entryX=0;entryY=0.5;entryDx=0;entryDy=0;" edge="1" parent="1" source="MCsUvH6jt3mRJvjkBpip-95" target="MCsUvH6jt3mRJvjkBpip-96">
          <mxGeometry width="50" height="50" relative="1" as="geometry">
            <mxPoint x="1900" y="270" as="sourcePoint" />
            <mxPoint x="1970" y="220" as="targetPoint" />
            <Array as="points">
              <mxPoint x="1920" y="269" />
              <mxPoint x="1920" y="233" />
            </Array>
          </mxGeometry>
        </mxCell>
        <mxCell id="jU25uh0QKvTO8C4eT4y0-14" value="Click add &lt;br&gt;button" style="edgeLabel;html=1;align=center;verticalAlign=middle;resizable=0;points=[];" vertex="1" connectable="0" parent="jU25uh0QKvTO8C4eT4y0-11">
          <mxGeometry x="0.0661" y="-1" relative="1" as="geometry">
            <mxPoint x="-1" as="offset" />
          </mxGeometry>
        </mxCell>
        <mxCell id="jU25uh0QKvTO8C4eT4y0-21" style="edgeStyle=orthogonalEdgeStyle;rounded=0;orthogonalLoop=1;jettySize=auto;html=1;exitX=1;exitY=0.5;exitDx=0;exitDy=0;entryX=0;entryY=0.5;entryDx=0;entryDy=0;" edge="1" parent="1" source="jU25uh0QKvTO8C4eT4y0-18" target="jU25uh0QKvTO8C4eT4y0-20">
          <mxGeometry relative="1" as="geometry" />
        </mxCell>
        <mxCell id="jU25uh0QKvTO8C4eT4y0-22" value="Select a&lt;br&gt;&amp;nbsp;customer" style="edgeLabel;html=1;align=center;verticalAlign=middle;resizable=0;points=[];" vertex="1" connectable="0" parent="jU25uh0QKvTO8C4eT4y0-21">
          <mxGeometry x="0.0413" relative="1" as="geometry">
            <mxPoint as="offset" />
          </mxGeometry>
        </mxCell>
        <mxCell id="jU25uh0QKvTO8C4eT4y0-18" value="Customer List" style="rounded=0;whiteSpace=wrap;html=1;" vertex="1" parent="1">
          <mxGeometry x="1830" y="380" width="120" height="57.5" as="geometry" />
        </mxCell>
        <mxCell id="jU25uh0QKvTO8C4eT4y0-20" value="Update Customer&#39;s Info&amp;nbsp;" style="rounded=0;whiteSpace=wrap;html=1;" vertex="1" parent="1">
          <mxGeometry x="2040" y="377.5" width="120" height="60" as="geometry" />
        </mxCell>
        <mxCell id="jU25uh0QKvTO8C4eT4y0-26" value="" style="endArrow=classic;html=1;rounded=0;exitX=1;exitY=0.5;exitDx=0;exitDy=0;" edge="1" parent="1" source="MCsUvH6jt3mRJvjkBpip-46">
          <mxGeometry width="50" height="50" relative="1" as="geometry">
            <mxPoint x="1760" y="450" as="sourcePoint" />
            <mxPoint x="1830" y="410" as="targetPoint" />
            <Array as="points">
              <mxPoint x="1760" y="493" />
              <mxPoint x="1760" y="410" />
            </Array>
          </mxGeometry>
        </mxCell>
        <mxCell id="jU25uh0QKvTO8C4eT4y0-27" value="Select &lt;br&gt;customer&lt;br&gt;management" style="edgeLabel;html=1;align=center;verticalAlign=middle;resizable=0;points=[];" vertex="1" connectable="0" parent="jU25uh0QKvTO8C4eT4y0-26">
          <mxGeometry x="0.2804" y="1" relative="1" as="geometry">
            <mxPoint as="offset" />
          </mxGeometry>
        </mxCell>
        <mxCell id="jU25uh0QKvTO8C4eT4y0-32" value="" style="rounded=0;whiteSpace=wrap;html=1;fillColor=#f8cecc;strokeColor=#b85450;" vertex="1" parent="1">
          <mxGeometry x="1830" y="630" width="140" height="142.5" as="geometry" />
        </mxCell>
        <mxCell id="jU25uh0QKvTO8C4eT4y0-33" value="Incoming order request" style="rounded=0;whiteSpace=wrap;html=1;" vertex="1" parent="1">
          <mxGeometry x="1850" y="660" width="110" height="42.5" as="geometry" />
        </mxCell>
        <mxCell id="jU25uh0QKvTO8C4eT4y0-34" value="Order list" style="rounded=0;whiteSpace=wrap;html=1;" vertex="1" parent="1">
          <mxGeometry x="1850" y="712.5" width="110" height="42.5" as="geometry" />
        </mxCell>
        <mxCell id="jU25uh0QKvTO8C4eT4y0-35" value="Order" style="text;strokeColor=none;fillColor=none;align=left;verticalAlign=middle;spacingLeft=4;spacingRight=4;overflow=hidden;points=[[0,0.5],[1,0.5]];portConstraint=eastwest;rotatable=0;whiteSpace=wrap;html=1;" vertex="1" parent="1">
          <mxGeometry x="1880" y="630" width="50" height="30" as="geometry" />
        </mxCell>
        <mxCell id="jU25uh0QKvTO8C4eT4y0-36" value="Order detail" style="rounded=0;whiteSpace=wrap;html=1;fillColor=#f8cecc;strokeColor=#b85450;" vertex="1" parent="1">
          <mxGeometry x="2090" y="690" width="120" height="42.5" as="geometry" />
        </mxCell>
        <mxCell id="jU25uh0QKvTO8C4eT4y0-37" value="" style="endArrow=classic;html=1;exitX=1;exitY=0.57;exitDx=0;exitDy=0;entryX=0;entryY=0.5;entryDx=0;entryDy=0;exitPerimeter=0;fillColor=#f8cecc;strokeColor=#b85450;" edge="1" parent="1" source="jU25uh0QKvTO8C4eT4y0-32" target="jU25uh0QKvTO8C4eT4y0-36">
          <mxGeometry width="50" height="50" relative="1" as="geometry">
            <mxPoint x="2025" y="681.75" as="sourcePoint" />
            <mxPoint x="2175" y="680.75" as="targetPoint" />
          </mxGeometry>
        </mxCell>
        <mxCell id="jU25uh0QKvTO8C4eT4y0-38" value="Click&lt;br&gt;&amp;nbsp;Detail" style="edgeLabel;html=1;align=center;verticalAlign=middle;resizable=0;points=[];" vertex="1" connectable="0" parent="jU25uh0QKvTO8C4eT4y0-37">
          <mxGeometry x="-0.1253" y="-4" relative="1" as="geometry">
            <mxPoint x="11" y="-1" as="offset" />
          </mxGeometry>
        </mxCell>
        <mxCell id="jU25uh0QKvTO8C4eT4y0-39" value="" style="endArrow=classic;html=1;rounded=0;exitX=1.001;exitY=0.608;exitDx=0;exitDy=0;exitPerimeter=0;fillColor=#f8cecc;strokeColor=#b85450;" edge="1" parent="1">
          <mxGeometry width="50" height="50" relative="1" as="geometry">
            <mxPoint x="1587.5925" y="492.81999999999994" as="sourcePoint" />
            <mxPoint x="1830" y="700" as="targetPoint" />
            <Array as="points">
              <mxPoint x="1690" y="493" />
              <mxPoint x="1690" y="700" />
            </Array>
          </mxGeometry>
        </mxCell>
        <mxCell id="jU25uh0QKvTO8C4eT4y0-42" value="Select&lt;br style=&quot;border-color: var(--border-color);&quot;&gt;&amp;nbsp;order&lt;br style=&quot;border-color: var(--border-color);&quot;&gt;management" style="edgeLabel;html=1;align=center;verticalAlign=middle;resizable=0;points=[];" vertex="1" connectable="0" parent="jU25uh0QKvTO8C4eT4y0-39">
          <mxGeometry x="0.5732" relative="1" as="geometry">
            <mxPoint x="31" y="-1" as="offset" />
          </mxGeometry>
        </mxCell>
        <mxCell id="jU25uh0QKvTO8C4eT4y0-44" value="" style="endArrow=classic;html=1;rounded=0;entryX=0;entryY=0.556;entryDx=0;entryDy=0;entryPerimeter=0;exitX=1;exitY=0.5;exitDx=0;exitDy=0;fillColor=#f8cecc;strokeColor=#b85450;" edge="1" parent="1" source="MCsUvH6jt3mRJvjkBpip-46" target="MCsUvH6jt3mRJvjkBpip-135">
          <mxGeometry width="50" height="50" relative="1" as="geometry">
            <mxPoint x="1730" y="897.5" as="sourcePoint" />
            <mxPoint x="1780" y="847.5" as="targetPoint" />
            <Array as="points">
              <mxPoint x="1660" y="493" />
              <mxPoint x="1660" y="880" />
            </Array>
          </mxGeometry>
        </mxCell>
        <mxCell id="jU25uh0QKvTO8C4eT4y0-45" value="Select&lt;br style=&quot;border-color: var(--border-color);&quot;&gt;&amp;nbsp;product update&lt;br&gt;&amp;nbsp;request&lt;br style=&quot;border-color: var(--border-color);&quot;&gt;management" style="edgeLabel;html=1;align=center;verticalAlign=middle;resizable=0;points=[];" vertex="1" connectable="0" parent="jU25uh0QKvTO8C4eT4y0-44">
          <mxGeometry x="0.6863" y="3" relative="1" as="geometry">
            <mxPoint as="offset" />
          </mxGeometry>
        </mxCell>
        <mxCell id="jU25uh0QKvTO8C4eT4y0-47" value="Change&lt;br&gt;account&lt;br&gt;&amp;nbsp;Info" style="rounded=0;whiteSpace=wrap;html=1;fillColor=#f8cecc;strokeColor=#b85450;" vertex="1" parent="1">
          <mxGeometry x="1215" y="230" width="120" height="60" as="geometry" />
        </mxCell>
        <mxCell id="jU25uh0QKvTO8C4eT4y0-48" value="" style="endArrow=classic;html=1;rounded=0;entryX=0.5;entryY=1;entryDx=0;entryDy=0;exitX=0;exitY=0.5;exitDx=0;exitDy=0;fillColor=#f8cecc;strokeColor=#b85450;" edge="1" parent="1" source="MCsUvH6jt3mRJvjkBpip-22" target="jU25uh0QKvTO8C4eT4y0-47">
          <mxGeometry width="50" height="50" relative="1" as="geometry">
            <mxPoint x="1470" y="320" as="sourcePoint" />
            <mxPoint x="1315" y="320" as="targetPoint" />
            <Array as="points">
              <mxPoint x="1450" y="440" />
              <mxPoint x="1450" y="320" />
              <mxPoint x="1275" y="320" />
            </Array>
          </mxGeometry>
        </mxCell>
        <mxCell id="jU25uh0QKvTO8C4eT4y0-49" value="Click&lt;br&gt;&amp;nbsp;account info" style="edgeLabel;html=1;align=center;verticalAlign=middle;resizable=0;points=[];" vertex="1" connectable="0" parent="jU25uh0QKvTO8C4eT4y0-48">
          <mxGeometry x="0.1244" relative="1" as="geometry">
            <mxPoint x="-37" y="3" as="offset" />
          </mxGeometry>
        </mxCell>
      </root>
    </mxGraphModel>
  </diagram>
</mxfile>
